<?xml version="1.0" encoding="UTF-8"?>
<svg width="1232px" height="1402px" viewBox="0 0 1232 1402" version="1.1" xmlns="http://www.w3.org/2000/svg" xmlns:xlink="http://www.w3.org/1999/xlink">
    <!-- Generator: Sketch 42 (36781) - http://www.bohemiancoding.com/sketch -->
    <title>Group</title>
    <desc>Created with Sketch.</desc>
    <defs>
        <path d="M464.898711,414.722318 C464.969446,405.816727 472.248113,398.597319 481.155693,398.597319 L480.897883,398.597319 C489.805632,398.597319 496.976655,405.821511 496.914908,414.7191 L496.690096,447.114396 L466.644628,447.314337 C465.537355,447.321706 464.646782,446.440274 464.655629,445.326542 L464.898711,414.722318 Z" id="path-1"></path>
        <mask id="mask-2" maskContentUnits="userSpaceOnUse" maskUnits="objectBoundingBox" x="0" y="0" width="32.259741" height="48.7170636" fill="white">
            <use xlink:href="#path-1"></use>
        </mask>
        <path d="M550.374959,586.525488 C586.273467,586.525488 615.374959,548.469692 615.374959,501.525488 C615.374959,454.581285 586.273467,416.525488 550.374959,416.525488 C514.47645,416.525488 473.535484,439.392307 485.374959,501.525488 C505.481744,567.07211 514.47645,586.525488 550.374959,586.525488 Z" id="path-3"></path>
        <filter x="-50%" y="-50%" width="200%" height="200%" filterUnits="objectBoundingBox" id="filter-4">
            <feMorphology radius="4" operator="dilate" in="SourceAlpha" result="shadowSpreadOuter1"></feMorphology>
            <feOffset dx="0" dy="2" in="shadowSpreadOuter1" result="shadowOffsetOuter1"></feOffset>
            <feGaussianBlur stdDeviation="2" in="shadowOffsetOuter1" result="shadowBlurOuter1"></feGaussianBlur>
            <feComposite in="shadowBlurOuter1" in2="SourceAlpha" operator="out" result="shadowBlurOuter1"></feComposite>
            <feColorMatrix values="0 0 0 0 0   0 0 0 0 0   0 0 0 0 0  0 0 0 0.5 0" type="matrix" in="shadowBlurOuter1" result="shadowMatrixOuter1"></feColorMatrix>
            <feMorphology radius="4" operator="dilate" in="SourceAlpha" result="shadowSpreadOuter2"></feMorphology>
            <feOffset dx="0" dy="2" in="shadowSpreadOuter2" result="shadowOffsetOuter2"></feOffset>
            <feGaussianBlur stdDeviation="2" in="shadowOffsetOuter2" result="shadowBlurOuter2"></feGaussianBlur>
            <feComposite in="shadowBlurOuter2" in2="SourceAlpha" operator="out" result="shadowBlurOuter2"></feComposite>
            <feColorMatrix values="0 0 0 0 0   0 0 0 0 0   0 0 0 0 0  0 0 0 0.5 0" type="matrix" in="shadowBlurOuter2" result="shadowMatrixOuter2"></feColorMatrix>
            <feMerge>
                <feMergeNode in="shadowMatrixOuter1"></feMergeNode>
                <feMergeNode in="shadowMatrixOuter2"></feMergeNode>
            </feMerge>
        </filter>
        <path d="M679.489787,81.995896 L733.489787,153.995896" id="path-5"></path>
    </defs>
    <g id="Page-1" stroke="none" stroke-width="1" fill="none" fill-rule="evenodd">
        <g id="Desktop-Landscape" transform="translate(-2215.000000, -1879.000000)">
            <g id="Group" transform="translate(2218.000000, 1860.000000)">
                <path d="M1174.30305,1339.1904 C1161.68651,1367.62606 1105.28174,1412.25419 1105.28174,1412.25419 C1101.43531,1415.39505 1102.35157,1418.11859 1107.31719,1418.14287 C1107.31719,1418.14287 1122.41424,1419.79636 1139.64557,1412.59695 C1190.01148,1384.97545 1222.31441,1353.0756 1222.31441,1353.0756 C1225.13259,1350.43778 1224.60401,1346.93219 1221.06849,1345.33989 C1221.06849,1345.33989 1191.70114,1329.80516 1174.30305,1339.1904 Z" id="Path-8" stroke="#979797" stroke-width="8" fill="#FFFFFF" transform="translate(1162.867166, 1377.344637) rotate(2.000000) translate(-1162.867166, -1377.344637) "></path>
                <path d="M713.684798,1363.39035 C652.496281,1400.52189 614.750977,1410.65121 614.750977,1410.65121 C610.018348,1412.15012 610.147865,1414.10082 615.030479,1415.0064 L615.202219,1415.03826 C629.812176,1417.74797 653.16182,1416.38655 667.364702,1411.99447 L767.696573,1380.96801 C770.858576,1379.9902 771.075692,1377.88199 768.148723,1376.33567 C768.148723,1376.33567 738.212065,1358.37935 713.684798,1363.39035 Z" id="Path-6" stroke="#979797" stroke-width="8" fill="#FFFFFF" transform="translate(691.786385, 1389.521888) rotate(2.000000) translate(-691.786385, -1389.521888) "></path>
                <path d="M248.877488,445.913811 L214.488743,545.775059 C205.497342,571.885129 200.559674,615.313859 203.460791,642.781888 L208.96023,694.851044 C209.830264,703.088605 212.172166,716.275584 214.192992,724.312853 L222.605517,757.771309 C229.203562,784.013183 248.965678,821.816388 266.758843,842.222502 L268.858224,844.63018 C270.673432,846.711953 273.670241,846.757493 275.547049,844.736995 L391.53123,719.872958 C403.557899,706.925515 425.793851,689.388396 441.174509,680.715174 L584.530016,599.876355 L585.450252,580.593908 C586.161245,565.695918 574.88263,555.99016 560.265918,558.91406 L575.409716,555.884723 C552.123187,560.542917 514.451231,560.113771 491.291321,554.931628 L447.524142,545.138508 C418.417446,538.625743 374.08588,520.923629 348.493736,505.591892 L248.877488,445.913811 Z" id="Path-7" stroke="#979797" stroke-width="8" fill="#FFFFFF" opacity="0.789999962" transform="translate(394.056446, 646.057882) rotate(2.000000) translate(-394.056446, -646.057882) "></path>
                <path d="M674.090454,15.1565111 C674.753887,13.635477 676.094078,13.4784377 677.087072,14.8100705 L778.847494,151.273605 C779.839047,152.603305 779.319096,153.862509 777.678947,154.087101 L749.930072,157.886877 C740.079068,159.235818 725.455849,164.914446 717.285082,170.558785 L696.159225,185.152456 C680.259545,196.135901 667.370307,220.705351 667.370307,240.042168 L667.370307,273.328873 C667.370307,274.982856 666.283324,277.112912 664.94272,278.086299 L249.706867,579.581282 C248.366147,580.554753 245.956481,581.567039 244.315417,581.843857 L208.67749,587.855331 C202.683499,588.866409 193.78505,592.493936 188.794128,595.963285 L84.1673316,668.692699 C65.1200569,681.933065 36.8391188,678.917701 24.4789101,665.682723 L24.4789101,665.682723 L24.4789101,665.682723 C5.05064632,644.879463 7.67811426,611.630702 30.3559503,591.412024 L120.840498,510.739517 C125.373214,506.698324 130.092306,498.60833 131.379875,492.674666 L138.977976,457.659394 C139.329918,456.037495 140.602215,453.807311 141.813459,452.683954 L515.774915,105.856917 C516.988967,104.730956 519.317229,103.816003 520.965481,103.813329 L551.582916,103.763657 C567.046234,103.73857 590.567568,97.676909 604.111729,90.2287144 L619.793309,81.6051121 C638.185415,71.4909395 659.898141,47.6947984 668.283818,28.469209 L674.090454,15.1565111 Z" id="Path-2" stroke="#979797" stroke-width="8" fill="#FFFFFF" transform="translate(395.408488, 345.574326) rotate(2.000000) translate(-395.408488, -345.574326) "></path>
                <path d="M794.542831,764.441497 C786.956675,765.950164 778.541135,773.021692 775.748532,780.230168 L759.23043,822.867937 C753.0452,838.83372 746.397451,865.566469 744.235606,882.543192 C744.235606,882.543192 741.401059,912.402637 725.038833,1010.00263 C708.985912,1105.75763 692.409227,1152.31159 692.409227,1152.31159 C691.369542,1155.4485 689.751938,1160.57287 688.799623,1163.74582 L642.290791,1318.70525 C641.336947,1321.88329 642.715701,1326.05432 645.386293,1328.03332 L640.563704,1324.45961 C669.285662,1345.74363 720.834622,1369.91779 755.706008,1378.45519 L742.068763,1375.11645 C777.474633,1383.7847 835.727592,1390.33021 872.16098,1389.73655 L924.979971,1388.87591 C927.188365,1388.83992 930.749309,1388.60399 932.946308,1388.34744 L1006.00208,1379.81659 C1029.04203,1377.12618 1065.72329,1369.51787 1087.93475,1362.82211 L1204.03067,1327.82443 C1209.84712,1326.07104 1211.06203,1321.18372 1206.7462,1316.91025 L1200.61669,1310.84091 C1184.13427,1294.52026 1163.58168,1263.91082 1154.71465,1242.48113 L1139.29902,1205.2249 C1137.81891,1201.6478 1135.88492,1195.70418 1134.97887,1191.94762 L1124.66069,1149.16734 C1118.70458,1124.4727 1112.74796,1083.90034 1111.97439,1058.49115 C1111.97439,1058.49115 1108.67301,1035.16626 1114.71941,967.260329 C1120.04444,907.455969 1132.95597,859.705305 1132.95597,859.705305 C1134.42675,853.811237 1135.84072,844.116665 1136.07528,838.043907 C1136.07528,838.043907 1141.82623,727.198976 1125.30107,733.086197 C1069.69689,752.895632 941.10182,735.295163 941.10182,735.295163 L794.542831,764.441497 Z" id="Path-5" stroke="#979797" stroke-width="8" fill="#FFFFFF" transform="translate(924.946922, 1061.316833) rotate(2.000000) translate(-924.946922, -1061.316833) "></path>
                <path d="M711.055203,518.991304 C674.369675,523.734024 623.659862,549.030735 597.790461,575.494322 L590.019721,583.443546 C577.278414,596.477504 578.268974,616.553163 592.217018,628.271033 L688.361722,709.043014 C713.312694,730.004537 759.580094,751.421927 764.422555,752.244738 L764.422555,752.244738 L764.422555,752.244738 C781.984279,758.974762 838.752712,764.117141 891.20075,762.926385 C891.20075,762.926385 1163.42601,765.887626 1137.08658,715.704747 C1091.96905,629.745098 997.886921,582.403315 997.886921,582.403315 C969.163055,564.820278 919.337133,544.145092 886.584133,536.220732 L822.616133,520.744123 C811.342056,518.016439 792.790977,515.805214 781.201468,515.805214 C781.201468,515.805214 744.592272,515.805214 739.065863,515.805214 C733.539453,515.805214 711.055203,518.991304 711.055203,518.991304 Z" id="Path-4" stroke="#979797" stroke-width="8" fill="#FFFFFF" transform="translate(859.977949, 639.451840) rotate(2.000000) translate(-859.977949, -639.451840) "></path>
                <path d="M216.281898,432.220145 C225.946881,432.220145 237.955148,399.614915 237.955148,380.561028 C237.955148,361.507141 225.946881,363.219917 216.281898,363.219917 C206.616915,363.219917 198.781898,378.666144 198.781898,397.720031 C198.781898,416.773917 206.616915,432.220145 216.281898,432.220145 Z" id="Oval-2" stroke="#979797" stroke-width="8" fill="#FFFFFF" transform="translate(218.368523, 397.700144) rotate(-44.000000) translate(-218.368523, -397.700144) "></path>
                <path d="M255.093381,636.464885 C265.557796,636.464885 278.559318,578.126834 278.559318,578.126834 C278.559318,556.609498 265.557796,558.543716 255.093381,558.543716 C244.628966,558.543716 239.349319,553.605123 239.349319,575.12246 C239.349319,596.639797 244.628966,636.464885 255.093381,636.464885 Z" id="Oval-2" stroke="#979797" stroke-width="8" fill="#FFFFFF" transform="translate(258.954319, 597.259883) rotate(-44.000000) translate(-258.954319, -597.259883) "></path>
                <path d="M274.653638,617.832998 C274.653638,617.832998 298.200392,719.290699 373.415635,825.333317 C414.298059,882.971624 464.553506,939.198528 522.457344,961.310503 C586.983779,939.198528 642.585556,832.865678 642.585556,832.865678 L715.228409,677.558251 C715.228409,677.558251 734.96392,586.166913 656.094256,631.862582 C577.224593,677.558251 482.36958,658.018931 464.553506,655.936128 C369.016489,644.767293 274.653638,617.832998 274.653638,617.832998 Z" id="Path-3" stroke="#979797" stroke-width="8" fill="#FFFFFF" transform="translate(496.038783, 789.571751) rotate(2.000000) translate(-496.038783, -789.571751) "></path>
                <path d="M488.811885,414.079136 C488.811885,414.079136 502.787659,400.369329 524.361347,391.318122 C530.144383,388.891858 536.781692,386.779901 544.315718,385.325098 C558.818077,382.524726 555.167464,383.812948 555.167464,383.812948 C563.996238,383.653768 578.300424,383.997753 587.114678,384.581123 L596.355303,385.192712 C597.460006,385.265827 599.231351,385.116325 600.302943,384.860882 L607.643817,383.110983 C623.761095,379.268988 646.455409,366.782203 658.329355,355.224501 L658.217602,355.333277 C668.903065,344.932406 688.305401,330.936951 701.544556,324.078412 L723.104948,312.909059 C726.044841,311.386049 726.62668,312.14378 724.409157,314.596372 L670.621695,374.085581 C670.621695,374.085581 658.88767,390.063238 624.802742,401.923029 C611.907471,406.409915 592.331434,402.78551 592.331434,402.78551 C587.96103,402.18205 580.831586,401.757739 576.423408,401.837494 L575.822458,401.848367 C566.431198,402.018279 551.40035,403.8448 542.243185,405.929595 L543.307798,405.687217 C533.619249,407.892991 519.460912,414.695226 511.677543,420.88578 L500.58923,429.704943 L488.811885,414.079136 Z" id="Path-9" stroke="#979797" stroke-width="8" fill="#FFFFFF" transform="translate(607.283648, 370.913947) rotate(2.000000) translate(-607.283648, -370.913947) "></path>
                <use id="Rectangle" stroke="#979797" mask="url(#mask-2)" stroke-width="16" fill="#FFFFFF" transform="translate(480.785434, 422.955851) rotate(-37.000000) translate(-480.785434, -422.955851) " xlink:href="#path-1"></use>
                <g id="Oval" transform="translate(549.333952, 501.525488) rotate(-47.000000) translate(-549.333952, -501.525488) ">
                    <use fill="black" fill-opacity="1" filter="url(#filter-4)" xlink:href="#path-3"></use>
                    <use stroke="#979797" stroke-width="8" fill="#FFFFFF" fill-rule="evenodd" xlink:href="#path-3"></use>
                </g>
                <g id="Line" transform="translate(706.489787, 117.995896) rotate(2.000000) translate(-706.489787, -117.995896) " stroke-linecap="square" stroke="#979797">
                    <use stroke-width="12" xlink:href="#path-5"></use>
                    <use stroke-width="1" xlink:href="#path-5"></use>
                    <use stroke-width="1" xlink:href="#path-5"></use>
                    <use stroke-width="1" xlink:href="#path-5"></use>
                </g>
                <path d="M671.893616,73.4702083 L14.8936161,642.470208" id="Line" stroke="#979797" stroke-width="3" stroke-linecap="square" transform="translate(343.393616, 357.970208) rotate(2.000000) translate(-343.393616, -357.970208) "></path>
                <path d="M679.645969,83.6578913 L17.6459692,646.657891" id="Line" stroke="#979797" stroke-width="3" stroke-linecap="square" transform="translate(348.645969, 365.157891) rotate(2.000000) translate(-348.645969, -365.157891) "></path>
                <path d="M687.381482,93.8103702 L18.3814817,651.81037" id="Line" stroke="#979797" stroke-width="3" stroke-linecap="square" transform="translate(352.881482, 372.810370) rotate(2.000000) translate(-352.881482, -372.810370) "></path>
                <path d="M694.082704,105.92734 L18.0827039,656.92734" id="Line" stroke="#979797" stroke-width="3" stroke-linecap="square" transform="translate(356.082704, 381.427340) rotate(2.000000) translate(-356.082704, -381.427340) "></path>
                <path d="M702.886188,116.185736 L23.8861878,658.185736" id="Line" stroke="#979797" stroke-width="3" stroke-linecap="square" transform="translate(363.386188, 387.185736) rotate(2.000000) translate(-363.386188, -387.185736) "></path>
                <path d="M710.6217,126.338215 L24.6217003,663.338215" id="Line" stroke="#979797" stroke-width="3" stroke-linecap="square" transform="translate(367.621700, 394.838215) rotate(2.000000) translate(-367.621700, -394.838215) "></path>
                <path d="M718.373749,137.543348 L28.3737488,666.543348" id="Line" stroke="#979797" stroke-width="3" stroke-linecap="square" transform="translate(373.373749, 402.043348) rotate(2.000000) translate(-373.373749, -402.043348) "></path>
            </g>
        </g>
    </g>
</svg>